<svg width="800" height="800" viewBox="0 0 800 800" fill="none" xmlns="http://www.w3.org/2000/svg">
<g clip-path="url(#clip0_37_2)">
<path d="M400 20C179.44 20 9.84565e-05 181.493 9.84565e-05 380C9.84565e-05 449.4 21.9601 516.613 63.5734 574.72C55.6934 661.88 34.5734 726.587 3.90677 757.24C-0.146568 761.293 -1.1599 767.493 1.4001 772.613C3.6801 777.187 8.33343 780 13.3334 780C13.9468 780 14.5734 779.96 15.2001 779.867C20.6001 779.107 146.04 761.04 236.76 708.693C288.293 729.48 343.173 740 400 740C620.56 740 800 578.507 800 380C800 181.493 620.56 20 400 20Z" fill="#00AEEF"/>
</g>
<defs>
<clipPath id="clip0_37_2">
<rect width="800" height="800" fill="white"/>
</clipPath>
</defs>
</svg>
