<?xml version="1.0" encoding="UTF-8"?>
<svg id="Layer_1" data-name="Layer 1" xmlns="http://www.w3.org/2000/svg" viewBox="0 0 298.3 202.05">
  <defs>
    <style>
      .cls-1 {
        fill: #2b2e31;
      }

      .cls-2 {
        fill: #288ab2;
      }

      .cls-3 {
        fill: #2ea4dd;
      }
    </style>
  </defs>
  <path class="cls-3" d="m19.78,134.12c-3.77-3.72-5.61-8.34-5.61-14.11V15.09H0v104.92c0,9.62,3.32,17.65,9.88,23.87,6.49,6.17,14.44,9.3,23.63,9.3h4.36v-13.49h-4.36c-5.45,0-9.94-1.82-13.73-5.56Z"/>
  <path class="cls-3" d="m108.02,79.93c-9.23-10.23-20.47-15.41-33.4-15.41s-23.8,4.41-32.56,13.11c-8.77,8.71-13.22,19.18-13.22,31.13s4.47,22.51,13.27,31.44c8.82,8.95,19.36,13.48,31.31,13.48h1.53c12.7,0,23.65-4.95,32.54-14.72l1.14-1.25v-24.65l-7.97,11.83c-3.13,4.65-7.15,8.42-11.95,11.19-4.7,2.72-10.13,4.1-16.14,4.1-4.59,0-9.48-1.68-14.59-5.01l52.83-52.16-2.79-3.09Zm-34.85-1.92c6.46,0,12.23,1.73,17.51,5.26l-42.57,42.28c-3.42-5.12-5.1-10.82-5.1-17.3,0-7.96,3.01-14.84,9.21-21.04,6.19-6.19,13.05-9.2,20.95-9.2Z"/>
  <path class="cls-3" d="m188.34,76.13c-2.15-2-4.6-3.8-7.34-5.4-7.29-4.24-15.05-6.39-23.07-6.39-12.28,0-22.94,4.41-31.71,13.11-8.77,8.71-13.22,19.3-13.22,31.47s4.45,22.77,13.22,31.47c8.76,8.7,19.43,13.11,31.71,13.11,8.03,0,15.65-2.1,22.67-6.23,2.86-1.69,5.45-3.64,7.74-5.84v10.19h14.17v-85.42h-14.17v9.91Zm-8.73,10.96c6.1,6.26,9.07,13.43,9.07,21.93s-2.94,15.64-8.99,21.84c-6.02,6.17-13.05,9.17-21.51,9.17s-15.61-3.01-21.8-9.2c-6.19-6.2-9.21-13.3-9.21-21.72s3.02-15.6,9.23-21.91c6.19-6.29,13.29-9.35,21.69-9.35s15.43,3.03,21.51,9.25Z"/>
  <path class="cls-3" d="m285.18,77.47h0c-8.71-8.71-19.41-13.12-31.8-13.12-7.78,0-15.37,2.09-22.54,6.2-2.93,1.68-5.55,3.6-7.87,5.75v-10.08h-14.17v135.83h14.17v-60.72c2.47,2.29,5.24,4.32,8.31,6.07,7.12,4.05,14.55,6.11,22.1,6.11,12.39,0,23.09-4.42,31.8-13.12,8.71-8.71,13.12-19.29,13.12-31.46s-4.41-22.75-13.12-31.46Zm-31.55,62.55c-8.48,0-15.61-3.01-21.8-9.2-6.19-6.2-9.21-13.3-9.21-21.72s3.02-15.6,9.23-21.91c6.19-6.29,13.29-9.35,21.69-9.35s15.43,3.03,21.51,9.25c6.11,6.26,9.07,13.43,9.07,21.93s-2.94,15.64-8.99,21.84c-6.02,6.17-13.05,9.17-21.51,9.17Z"/>
  <g>
    <polygon class="cls-3" points="25.05 30.61 103.55 0 43.47 36.84 25.05 30.61"/>
    <polygon class="cls-2" points="57.64 58.66 104.11 .28 42.62 36.84 57.64 58.66"/>
    <polygon class="cls-3" points="103.55 0 50.84 38.54 80.59 47.89 103.55 0"/>
  </g>
  <g>
    <path class="cls-1" d="m9.86,174.33h6.95v1.78H7.96v-14.31h1.9v12.53Z"/>
    <path class="cls-1" d="m27.12,165.54h1.78v10.57h-1.78v-1.9c-.45.68-1.03,1.2-1.75,1.58-.71.38-1.5.57-2.36.57-.99,0-1.89-.24-2.7-.72-.81-.48-1.44-1.15-1.9-2-.46-.85-.68-1.79-.68-2.82s.23-1.97.68-2.82c.46-.85,1.09-1.51,1.9-1.99.81-.48,1.71-.72,2.7-.72.86,0,1.65.19,2.36.57.71.38,1.29.91,1.75,1.58v-1.9Zm-3.78,9.1c1.08,0,1.98-.36,2.7-1.09.72-.73,1.08-1.64,1.08-2.72s-.36-1.99-1.08-2.72c-.72-.73-1.62-1.09-2.7-1.09s-1.99.36-2.71,1.09c-.72.73-1.08,1.64-1.08,2.72s.36,2,1.08,2.72c.72.73,1.63,1.09,2.71,1.09Z"/>
    <path class="cls-1" d="m40.03,175.15c-.87.81-2.03,1.22-3.48,1.22s-2.6-.41-3.48-1.22c-.87-.81-1.31-1.89-1.31-3.23v-6.38h1.78v6.14c0,.89.28,1.61.83,2.15.55.54,1.28.82,2.18.82s1.63-.27,2.18-.82c.55-.54.83-1.26.83-2.15v-6.14h1.78v6.38c0,1.34-.44,2.41-1.31,3.23Z"/>
    <path class="cls-1" d="m49.8,165.29c1.29,0,2.33.39,3.11,1.17.79.78,1.18,1.82,1.18,3.12v6.53h-1.78v-5.97c0-.95-.28-1.7-.84-2.27-.56-.57-1.31-.86-2.25-.86s-1.76.29-2.35.87c-.59.58-.88,1.35-.88,2.3v5.93h-1.78v-10.57h1.78v1.61c.86-1.24,2.13-1.86,3.81-1.86Z"/>
    <path class="cls-1" d="m61.93,176.37c-1.05,0-2.01-.24-2.88-.72-.86-.48-1.54-1.15-2.03-2-.49-.85-.73-1.79-.73-2.82s.24-1.97.73-2.82c.49-.85,1.17-1.51,2.03-1.99.86-.48,1.82-.72,2.88-.72s1.98.24,2.84.71c.85.48,1.52,1.12,2,1.94l-1.55.93c-.32-.57-.78-1.03-1.36-1.36s-1.22-.5-1.92-.5c-1.09,0-1.99.36-2.71,1.09-.72.73-1.08,1.64-1.08,2.72s.36,2,1.08,2.72,1.63,1.09,2.71,1.09c.7,0,1.34-.17,1.92-.51.58-.34,1.03-.79,1.36-1.37l1.55.93c-.48.82-1.15,1.47-2,1.95-.85.48-1.8.71-2.83.71Z"/>
    <path class="cls-1" d="m74.51,165.29c1.29,0,2.33.39,3.11,1.17.79.78,1.18,1.82,1.18,3.12v6.53h-1.78v-5.97c0-.95-.28-1.7-.84-2.27-.56-.57-1.31-.86-2.25-.86s-1.76.29-2.35.87c-.59.58-.88,1.35-.88,2.3v5.93h-1.78v-14.94h1.78v6.04c.86-1.28,2.13-1.92,3.81-1.92Z"/>
    <path class="cls-1" d="m87.38,180.06v-19.49h1.64v19.49h-1.64Z"/>
    <path class="cls-1" d="m99.82,174.33h7.58v1.78h-9.48v-14.31h9.38v1.78h-7.47v4.44h6.79v1.78h-6.79v4.53Z"/>
    <path class="cls-1" d="m122.56,165.29c1.22,0,2.19.36,2.91,1.09.73.73,1.09,1.7,1.09,2.91v6.83h-1.78v-6.33c0-.84-.25-1.52-.75-2.02-.5-.5-1.17-.75-2.01-.75s-1.56.26-2.09.77c-.53.51-.79,1.19-.79,2.05v6.29h-1.78v-6.33c0-.84-.25-1.52-.75-2.02s-1.17-.75-2.01-.75-1.56.26-2.09.77c-.53.51-.79,1.19-.79,2.05v6.29h-1.78v-10.57h1.78v1.43c.8-1.12,1.96-1.68,3.46-1.68.82,0,1.54.18,2.16.55.61.36,1.08.87,1.39,1.53.4-.67.93-1.18,1.58-1.54.66-.36,1.41-.54,2.25-.54Z"/>
    <path class="cls-1" d="m135.31,165.29c1.51,0,2.77.53,3.79,1.59s1.52,2.38,1.52,3.95-.51,2.89-1.52,3.95-2.28,1.59-3.79,1.59c-.86,0-1.65-.19-2.36-.57-.71-.38-1.29-.91-1.74-1.58v5.84h-1.78v-14.51h1.78v1.9c.45-.67,1.03-1.2,1.74-1.58.71-.38,1.5-.57,2.36-.57Zm-.33,9.36c1.09,0,1.99-.36,2.71-1.09.72-.73,1.08-1.64,1.08-2.72s-.36-1.99-1.08-2.72c-.72-.73-1.63-1.09-2.71-1.09s-1.98.36-2.69,1.09c-.72.73-1.07,1.64-1.07,2.72s.36,2,1.07,2.72,1.61,1.09,2.69,1.09Z"/>
    <path class="cls-1" d="m147.94,176.37c-1.05,0-2.01-.24-2.88-.72-.86-.48-1.54-1.15-2.03-2-.49-.85-.73-1.79-.73-2.82s.24-1.97.73-2.82c.49-.85,1.17-1.51,2.03-1.99.86-.48,1.82-.72,2.88-.72,1.59,0,2.93.53,4.01,1.59,1.08,1.06,1.62,2.38,1.62,3.95s-.54,2.89-1.62,3.95c-1.08,1.06-2.41,1.59-4.01,1.59Zm0-1.72c1.08,0,1.98-.36,2.7-1.09.72-.73,1.08-1.64,1.08-2.72s-.36-1.99-1.08-2.72c-.72-.73-1.62-1.09-2.7-1.09s-1.99.36-2.71,1.09c-.72.73-1.08,1.64-1.08,2.72s.36,2,1.08,2.72,1.63,1.09,2.71,1.09Z"/>
    <path class="cls-1" d="m169.52,165.54h1.95l-3.88,10.57h-1.86l-2.93-8.47-2.93,8.47h-1.86l-3.88-10.57h2.01l2.87,8.4,2.91-8.4h1.82l2.93,8.42,2.86-8.42Z"/>
    <path class="cls-1" d="m183.13,170.83c0,.1-.02.36-.05.79h-9.1c.18.93.63,1.68,1.33,2.25s1.57.86,2.59.86c.76,0,1.45-.16,2.09-.48s1.13-.73,1.49-1.24l1.23,1.05c-.53.72-1.22,1.28-2.07,1.69-.85.41-1.78.62-2.79.62-1.65,0-3.03-.53-4.13-1.6-1.1-1.07-1.65-2.39-1.65-3.98,0-1.03.24-1.96.72-2.8.48-.84,1.15-1.5,2-1.98.85-.48,1.8-.72,2.84-.72s1.97.24,2.82.72c.84.48,1.51,1.14,1.99,1.99.48.85.72,1.79.72,2.83Zm-5.54-3.9c-.92,0-1.71.29-2.38.86-.67.57-1.09,1.31-1.26,2.21h7.28c-.17-.92-.59-1.66-1.26-2.22-.67-.56-1.46-.85-2.39-.85Z"/>
    <path class="cls-1" d="m190.8,165.37h.35v1.84h-.35c-1.11,0-1.99.33-2.64.98-.64.65-.97,1.53-.97,2.64v5.29h-1.78v-10.57h1.78v1.82c.83-1.33,2.03-2,3.61-2Z"/>
    <path class="cls-1" d="m198.77,180.06v-19.49h1.64v19.49h-1.64Z"/>
    <path class="cls-1" d="m12.25,197.69l-1.39-3.46H3.86l-1.39,3.46H.44l5.82-14.31h2.27l5.82,14.31h-2.1Zm-7.69-5.23h5.6l-2.81-7.03-2.79,7.03Z"/>
    <path class="cls-1" d="m20.94,197.94c-1.05,0-2.01-.24-2.88-.72-.86-.48-1.54-1.15-2.03-2-.49-.85-.73-1.79-.73-2.82s.24-1.97.73-2.82c.49-.85,1.17-1.51,2.03-1.99.86-.48,1.82-.72,2.88-.72s1.98.24,2.84.71c.85.48,1.52,1.12,2,1.94l-1.55.93c-.32-.57-.78-1.03-1.36-1.36s-1.22-.5-1.92-.5c-1.09,0-1.99.36-2.71,1.09-.72.73-1.08,1.64-1.08,2.72s.36,2,1.08,2.72,1.63,1.09,2.71,1.09c.7,0,1.34-.17,1.92-.51.58-.34,1.03-.79,1.36-1.37l1.55.93c-.48.82-1.15,1.47-2,1.95-.85.48-1.8.71-2.83.71Z"/>
    <path class="cls-1" d="m32.78,197.94c-1.05,0-2.01-.24-2.88-.72-.86-.48-1.54-1.15-2.03-2-.49-.85-.73-1.79-.73-2.82s.24-1.97.73-2.82c.49-.85,1.17-1.51,2.03-1.99.86-.48,1.82-.72,2.88-.72s1.98.24,2.84.71c.85.48,1.52,1.12,2,1.94l-1.55.93c-.32-.57-.78-1.03-1.36-1.36s-1.22-.5-1.92-.5c-1.09,0-1.99.36-2.71,1.09-.72.73-1.08,1.64-1.08,2.72s.36,2,1.08,2.72,1.63,1.09,2.71,1.09c.7,0,1.34-.17,1.92-.51.58-.34,1.03-.79,1.36-1.37l1.55.93c-.48.82-1.15,1.47-2,1.95-.85.48-1.8.71-2.83.71Z"/>
    <path class="cls-1" d="m50.06,192.4c0,.1-.02.36-.05.79h-9.1c.18.93.63,1.68,1.33,2.25s1.57.86,2.59.86c.76,0,1.45-.16,2.09-.48s1.13-.73,1.49-1.24l1.23,1.05c-.53.72-1.22,1.28-2.07,1.69-.85.41-1.78.62-2.79.62-1.65,0-3.03-.53-4.13-1.6-1.1-1.07-1.65-2.39-1.65-3.98,0-1.03.24-1.96.72-2.8.48-.84,1.15-1.5,2-1.98.85-.48,1.8-.72,2.84-.72s1.97.24,2.82.72c.84.48,1.51,1.14,1.99,1.99.48.85.72,1.79.72,2.83Zm-5.54-3.9c-.92,0-1.71.29-2.38.86-.67.57-1.09,1.31-1.26,2.21h7.28c-.17-.92-.59-1.66-1.26-2.22-.67-.56-1.46-.85-2.39-.85Z"/>
    <path class="cls-1" d="m52.34,197.69v-14.94h1.78v14.94h-1.78Z"/>
    <path class="cls-1" d="m67.52,192.4c0,.1-.02.36-.05.79h-9.1c.18.93.63,1.68,1.33,2.25s1.57.86,2.59.86c.76,0,1.45-.16,2.09-.48s1.13-.73,1.49-1.24l1.23,1.05c-.53.72-1.22,1.28-2.07,1.69-.85.41-1.78.62-2.79.62-1.65,0-3.03-.53-4.13-1.6-1.1-1.07-1.65-2.39-1.65-3.98,0-1.03.24-1.96.72-2.8.48-.84,1.15-1.5,2-1.98.85-.48,1.8-.72,2.84-.72s1.97.24,2.82.72c.84.48,1.51,1.14,1.99,1.99.48.85.72,1.79.72,2.83Zm-5.54-3.9c-.92,0-1.71.29-2.38.86-.67.57-1.09,1.31-1.26,2.21h7.28c-.17-.92-.59-1.66-1.26-2.22-.67-.56-1.46-.85-2.39-.85Z"/>
    <path class="cls-1" d="m75.18,186.94h.35v1.84h-.35c-1.11,0-1.99.33-2.64.98-.64.65-.97,1.53-.97,2.64v5.29h-1.78v-10.57h1.78v1.82c.83-1.33,2.03-2,3.61-2Z"/>
    <path class="cls-1" d="m85.74,187.11h1.78v10.57h-1.78v-1.9c-.45.68-1.03,1.2-1.75,1.58-.71.38-1.5.57-2.36.57-.99,0-1.89-.24-2.7-.72-.81-.48-1.44-1.15-1.9-2-.46-.85-.68-1.79-.68-2.82s.23-1.97.68-2.82c.46-.85,1.09-1.51,1.9-1.99.81-.48,1.71-.72,2.7-.72.86,0,1.65.19,2.36.57.71.38,1.29.91,1.75,1.58v-1.9Zm-3.78,9.1c1.08,0,1.98-.36,2.7-1.09.72-.73,1.08-1.64,1.08-2.72s-.36-1.99-1.08-2.72c-.72-.73-1.62-1.09-2.7-1.09s-1.99.36-2.71,1.09c-.72.73-1.08,1.64-1.08,2.72s.36,2,1.08,2.72c.72.73,1.63,1.09,2.71,1.09Z"/>
    <path class="cls-1" d="m96.64,188.72h-3.18v5.85c0,1.09.57,1.64,1.7,1.64.49,0,.99-.13,1.48-.4v1.68c-.53.29-1.15.44-1.85.44-1.02,0-1.79-.27-2.32-.8-.53-.53-.79-1.29-.79-2.28v-6.14h-1.9v-1.61h1.9v-2.85h1.78v2.85h3.18v1.61Z"/>
    <path class="cls-1" d="m108.9,192.4c0,.1-.02.36-.05.79h-9.1c.18.93.63,1.68,1.33,2.25s1.57.86,2.59.86c.76,0,1.45-.16,2.09-.48s1.13-.73,1.49-1.24l1.23,1.05c-.53.72-1.22,1.28-2.07,1.69-.85.41-1.78.62-2.79.62-1.65,0-3.03-.53-4.13-1.6-1.1-1.07-1.65-2.39-1.65-3.98,0-1.03.24-1.96.72-2.8.48-.84,1.15-1.5,2-1.98.85-.48,1.8-.72,2.84-.72s1.97.24,2.82.72c.84.48,1.51,1.14,1.99,1.99.48.85.72,1.79.72,2.83Zm-5.54-3.9c-.92,0-1.71.29-2.38.86-.67.57-1.09,1.31-1.26,2.21h7.28c-.17-.92-.59-1.66-1.26-2.22-.67-.56-1.46-.85-2.39-.85Z"/>
    <path class="cls-1" d="m116.87,201.63v-19.49h1.64v19.49h-1.64Z"/>
    <path class="cls-1" d="m133.3,183.38c1.31,0,2.4.43,3.27,1.29.87.86,1.31,1.93,1.31,3.21s-.44,2.34-1.31,3.2c-.87.86-1.96,1.29-3.27,1.29h-3.99v5.33h-1.9v-14.31h5.89Zm-.05,7.2c.77,0,1.41-.26,1.92-.77.51-.51.76-1.16.76-1.93s-.25-1.42-.76-1.94-1.15-.77-1.92-.77h-3.94v5.42h3.94Z"/>
    <path class="cls-1" d="m145.45,186.94h.35v1.84h-.35c-1.11,0-1.99.33-2.64.98-.64.65-.97,1.53-.97,2.64v5.29h-1.78v-10.57h1.78v1.82c.83-1.33,2.03-2,3.61-2Z"/>
    <path class="cls-1" d="m152.2,197.94c-1.05,0-2.01-.24-2.88-.72-.86-.48-1.54-1.15-2.03-2-.49-.85-.73-1.79-.73-2.82s.24-1.97.73-2.82c.49-.85,1.17-1.51,2.03-1.99.86-.48,1.82-.72,2.88-.72,1.59,0,2.93.53,4.01,1.59,1.08,1.06,1.62,2.38,1.62,3.95s-.54,2.89-1.62,3.95c-1.08,1.06-2.41,1.59-4.01,1.59Zm0-1.72c1.08,0,1.98-.36,2.7-1.09.72-.73,1.08-1.64,1.08-2.72s-.36-1.99-1.08-2.72c-.72-.73-1.62-1.09-2.7-1.09s-1.99.36-2.71,1.09c-.72.73-1.08,1.64-1.08,2.72s.36,2,1.08,2.72,1.63,1.09,2.71,1.09Z"/>
    <path class="cls-1" d="m163.62,197.94c-1.71,0-3.14-.55-4.29-1.66l.99-1.29c.86.88,1.95,1.33,3.27,1.33.72,0,1.3-.13,1.76-.4.46-.27.69-.63.69-1.1,0-.2-.05-.37-.15-.53-.1-.16-.21-.29-.34-.39-.13-.1-.33-.2-.59-.3-.26-.1-.49-.17-.68-.22-.19-.05-.46-.12-.82-.21-.32-.08-.58-.15-.77-.2s-.43-.13-.73-.24-.54-.21-.73-.31c-.19-.1-.39-.23-.61-.4-.22-.17-.39-.34-.52-.53-.12-.19-.23-.41-.31-.67-.08-.26-.13-.55-.13-.86,0-.66.19-1.23.57-1.71s.87-.83,1.47-1.06c.6-.23,1.27-.34,2.02-.34,1.53,0,2.82.48,3.88,1.45l-1,1.31c-.78-.76-1.73-1.13-2.86-1.13-.64,0-1.17.12-1.6.36-.43.24-.64.58-.64,1.02,0,.2.05.38.15.54s.22.29.35.39c.13.1.33.2.6.3.27.1.5.17.68.22s.46.12.83.21c.32.07.57.14.76.19.19.05.44.13.73.23.3.1.54.2.72.3.19.1.39.23.6.39s.38.33.51.52c.12.18.22.4.31.66s.13.54.13.85c0,1.02-.4,1.82-1.21,2.41-.8.58-1.82.88-3.06.88Z"/>
    <path class="cls-1" d="m176.02,186.86c1.51,0,2.77.53,3.79,1.59s1.52,2.38,1.52,3.95-.51,2.89-1.52,3.95-2.28,1.59-3.79,1.59c-.86,0-1.65-.19-2.36-.57-.71-.38-1.29-.91-1.74-1.58v5.84h-1.78v-14.51h1.78v1.9c.45-.67,1.03-1.2,1.74-1.58.71-.38,1.5-.57,2.36-.57Zm-.33,9.36c1.09,0,1.99-.36,2.71-1.09.72-.73,1.08-1.64,1.08-2.72s-.36-1.99-1.08-2.72c-.72-.73-1.63-1.09-2.71-1.09s-1.98.36-2.69,1.09c-.72.73-1.07,1.64-1.07,2.72s.36,2,1.07,2.72,1.61,1.09,2.69,1.09Z"/>
    <path class="cls-1" d="m194.09,192.4c0,.1-.02.36-.05.79h-9.1c.18.93.63,1.68,1.33,2.25s1.57.86,2.59.86c.76,0,1.45-.16,2.09-.48s1.13-.73,1.49-1.24l1.23,1.05c-.53.72-1.22,1.28-2.07,1.69-.85.41-1.78.62-2.79.62-1.65,0-3.03-.53-4.13-1.6-1.1-1.07-1.65-2.39-1.65-3.98,0-1.03.24-1.96.72-2.8.48-.84,1.15-1.5,2-1.98.85-.48,1.8-.72,2.84-.72s1.97.24,2.82.72c.84.48,1.51,1.14,1.99,1.99.48.85.72,1.79.72,2.83Zm-5.54-3.9c-.92,0-1.71.29-2.38.86-.67.57-1.09,1.31-1.26,2.21h7.28c-.17-.92-.59-1.66-1.26-2.22-.67-.56-1.46-.85-2.39-.85Z"/>
    <path class="cls-1" d="m201.75,186.94h.35v1.84h-.35c-1.11,0-1.99.33-2.64.98-.64.65-.97,1.53-.97,2.64v5.29h-1.78v-10.57h1.78v1.82c.83-1.33,2.03-2,3.61-2Z"/>
  </g>
</svg>